<?xml version="1.0" standalone="no"?><?xml-stylesheet type="text/css" href="https://wps.processon.com/themes/default/wps/mind/icons/icons.css" ?><!DOCTYPE svg PUBLIC "-//W3C//DTD SVG 1.1//EN" "http://www.w3.org/Graphics/SVG/1.1/DTD/svg11.dtd"><svg id="SvgjsSvg1006" width="1186.7015744163878" height="835.7190630473788" xmlns="http://www.w3.org/2000/svg" version="1.1" xmlns:xlink="http://www.w3.org/1999/xlink" xmlns:svgjs="http://svgjs.com/svgjs"><defs id="SvgjsDefs1007"><pattern patternUnits="userSpaceOnUse" id="pattern_mark_0" width="300" height="300"><text x="150" y="100" fill="rgba(229,229,229,0.8)" font-size="18" transform="rotate(-45, 150, 150)" style="dominant-baseline: middle; text-anchor: middle;"></text></pattern><pattern patternUnits="userSpaceOnUse" id="pattern_mark_1" width="300" height="300"><text x="150" y="200" fill="rgba(229,229,229,0.8)" font-size="18" transform="rotate(-45, 150, 150)" style="dominant-baseline: middle; text-anchor: middle;"></text></pattern><marker id="SvgjsMarker1151" markerWidth="13" markerHeight="9" refX="9.5" refY="4.5" viewBox="0 0 13 9" orient="auto" markerUnits="userSpaceOnUse" stroke-dasharray="0,0"><path id="SvgjsPath1152" d="M0,0 L13,4.5 L0,9 L0,0" fill="#323232" stroke="#323232" stroke-width="1"></path></marker><marker id="SvgjsMarker1155" markerWidth="13" markerHeight="9" refX="9.5" refY="4.5" viewBox="0 0 13 9" orient="auto" markerUnits="userSpaceOnUse" stroke-dasharray="0,0"><path id="SvgjsPath1156" d="M0,0 L13,4.5 L0,9 L0,0" fill="#323232" stroke="#323232" stroke-width="1"></path></marker><marker id="SvgjsMarker1159" markerWidth="13" markerHeight="9" refX="9.5" refY="4.5" viewBox="0 0 13 9" orient="auto" markerUnits="userSpaceOnUse" stroke-dasharray="0,0"><path id="SvgjsPath1160" d="M0,0 L13,4.5 L0,9 L0,0" fill="#323232" stroke="#323232" stroke-width="1"></path></marker><marker id="SvgjsMarker1163" markerWidth="13" markerHeight="9" refX="9.5" refY="4.5" viewBox="0 0 13 9" orient="auto" markerUnits="userSpaceOnUse" stroke-dasharray="0,0"><path id="SvgjsPath1164" d="M0,0 L13,4.5 L0,9 L0,0" fill="#323232" stroke="#323232" stroke-width="1"></path></marker><marker id="SvgjsMarker1167" markerWidth="13" markerHeight="9" refX="9.5" refY="4.5" viewBox="0 0 13 9" orient="auto" markerUnits="userSpaceOnUse" stroke-dasharray="0,0"><path id="SvgjsPath1168" d="M0,0 L13,4.5 L0,9 L0,0" fill="#323232" stroke="#323232" stroke-width="1"></path></marker><marker id="SvgjsMarker1171" markerWidth="13" markerHeight="9" refX="9.5" refY="4.5" viewBox="0 0 13 9" orient="auto" markerUnits="userSpaceOnUse" stroke-dasharray="0,0"><path id="SvgjsPath1172" d="M0,0 L13,4.5 L0,9 L0,0" fill="#323232" stroke="#323232" stroke-width="1"></path></marker><pattern patternUnits="userSpaceOnUse" id="wpspattern_mark_0" width="300" height="300"><text x="150" y="100" fill="#0000004d" font-size="18" transform="rotate(-45, 150, 150)" style="dominant-baseline: middle; text-anchor: middle;"></text></pattern></defs><rect id="svgbackgroundid" width="1186.7015744163878" height="835.7190630473788" fill="rgb(255,255,255)"></rect><rect id="SvgjsRect1009" width="1186.7015744163878" height="835.7190630473788" fill="url(#pattern_mark_0)"></rect><rect id="SvgjsRect1010" width="1186.7015744163878" height="835.7190630473788" fill="url(#pattern_mark_1)"></rect><g id="SvgjsG1011" transform="translate(205.03490774972116,592.3222274780275)"><path id="SvgjsPath1012" d="M 0 0L 948.889 0L 948.889 218.397L 0 218.397Z" stroke="rgba(33,41,48,1)" stroke-width="1.5" fill-opacity="1" fill="#ffffff"></path><g id="SvgjsG1013"><text id="SvgjsText1014" font-family="&quot;Microsoft YaHei&quot;, 微软雅黑, Arial" text-anchor="middle" font-size="13px" width="929px" fill="#323232" font-weight="400" align="middle" lineHeight="125%" anchor="middle" family="&quot;Microsoft YaHei&quot;, 微软雅黑, Arial" size="13px" weight="400" font-style="" opacity="1" y="98.5735" transform="rotate(0)"></text></g></g><g id="SvgjsG1015" transform="translate(209.4793521941656,307.2222222222223)"><path id="SvgjsPath1016" d="M 0 0L 948.889 0L 948.889 218.397L 0 218.397Z" stroke="rgba(33,41,48,1)" stroke-width="1.5" fill-opacity="1" fill="#ffffff"></path><g id="SvgjsG1017"><text id="SvgjsText1018" font-family="&quot;Microsoft YaHei&quot;, 微软雅黑, Arial" text-anchor="middle" font-size="13px" width="929px" fill="#323232" font-weight="400" align="middle" lineHeight="125%" anchor="middle" family="&quot;Microsoft YaHei&quot;, 微软雅黑, Arial" size="13px" weight="400" font-style="" opacity="1" y="98.5735" transform="rotate(0)"></text></g></g><g id="SvgjsG1019" transform="translate(220.5904633052767,25)"><path id="SvgjsPath1020" d="M 0 0L 941.111 0L 941.111 156.089L 0 156.089Z" stroke="rgba(33,41,48,1)" stroke-width="1.5" fill-opacity="1" fill="#ffffff"></path><g id="SvgjsG1021"><text id="SvgjsText1022" font-family="&quot;Microsoft YaHei&quot;, 微软雅黑, Arial" text-anchor="middle" font-size="13px" width="922px" fill="#323232" font-weight="400" align="middle" lineHeight="125%" anchor="middle" family="&quot;Microsoft YaHei&quot;, 微软雅黑, Arial" size="13px" weight="400" font-style="" opacity="1" y="67.4195" transform="rotate(0)"></text></g></g><g id="SvgjsG1023" transform="translate(25,74.04445309109158)"><path id="SvgjsPath1024" d="M 0 4Q 0 0 4 0L 135 0Q 139 0 139 4L 139 54Q 139 58 135 58L 4 58Q 0 58 0 54Z" stroke="rgba(33,41,48,1)" stroke-width="1.5" fill-opacity="1" fill="#ffffff"></path><g id="SvgjsG1025"><text id="SvgjsText1026" font-family="&quot;Microsoft YaHei&quot;, 微软雅黑, Arial" text-anchor="middle" font-size="20px" width="119px" fill="#323232" font-weight="400" align="middle" lineHeight="125%" anchor="middle" family="&quot;Microsoft YaHei&quot;, 微软雅黑, Arial" size="20px" weight="400" font-style="" opacity="1" y="11" transform="rotate(0)"><tspan id="SvgjsTspan1027" dy="25" x="69.5"><tspan id="SvgjsTspan1028" style="">主体层</tspan></tspan></text></g></g><g id="SvgjsG1029" transform="translate(264,74.04445309109158)"><path id="SvgjsPath1030" d="M 0 4Q 0 0 4 0L 135 0Q 139 0 139 4L 139 54Q 139 58 135 58L 4 58Q 0 58 0 54Z" stroke="rgba(33,41,48,1)" stroke-width="1.5" fill-opacity="1" fill="#ffffff"></path><g id="SvgjsG1031"><text id="SvgjsText1032" font-family="&quot;Microsoft YaHei&quot;, 微软雅黑, Arial" text-anchor="middle" font-size="20px" width="119px" fill="#323232" font-weight="400" align="middle" lineHeight="125%" anchor="middle" family="&quot;Microsoft YaHei&quot;, 微软雅黑, Arial" size="20px" weight="400" font-style="" opacity="1" y="11" transform="rotate(0)"><tspan id="SvgjsTspan1033" dy="25" x="69.5"><tspan id="SvgjsTspan1034" style="">平台</tspan></tspan></text></g></g><g id="SvgjsG1035" transform="translate(503,74.04445309109158)"><path id="SvgjsPath1036" d="M 0 4Q 0 0 4 0L 135 0Q 139 0 139 4L 139 54Q 139 58 135 58L 4 58Q 0 58 0 54Z" stroke="rgba(33,41,48,1)" stroke-width="1.5" fill-opacity="1" fill="#ffffff"></path><g id="SvgjsG1037"><text id="SvgjsText1038" font-family="&quot;Microsoft YaHei&quot;, 微软雅黑, Arial" text-anchor="middle" font-size="20px" width="119px" fill="#323232" font-weight="400" align="middle" lineHeight="125%" anchor="middle" family="&quot;Microsoft YaHei&quot;, 微软雅黑, Arial" size="20px" weight="400" font-style="" opacity="1" y="11" transform="rotate(0)"><tspan id="SvgjsTspan1039" dy="25" x="69.5"><tspan id="SvgjsTspan1040" style="">企业</tspan></tspan></text></g></g><g id="SvgjsG1041" transform="translate(742,74.04445309109158)"><path id="SvgjsPath1042" d="M 0 4Q 0 0 4 0L 135 0Q 139 0 139 4L 139 54Q 139 58 135 58L 4 58Q 0 58 0 54Z" stroke="rgba(33,41,48,1)" stroke-width="1.5" fill-opacity="1" fill="#ffffff"></path><g id="SvgjsG1043"><text id="SvgjsText1044" font-family="&quot;Microsoft YaHei&quot;, 微软雅黑, Arial" text-anchor="middle" font-size="20px" width="119px" fill="#323232" font-weight="400" align="middle" lineHeight="125%" anchor="middle" family="&quot;Microsoft YaHei&quot;, 微软雅黑, Arial" size="20px" weight="400" font-style="" opacity="1" y="11" transform="rotate(0)"><tspan id="SvgjsTspan1045" dy="25" x="69.5"><tspan id="SvgjsTspan1046" style="">监管机构</tspan></tspan></text></g></g><g id="SvgjsG1047" transform="translate(981,74.04445309109158)"><path id="SvgjsPath1048" d="M 0 4Q 0 0 4 0L 135 0Q 139 0 139 4L 139 54Q 139 58 135 58L 4 58Q 0 58 0 54Z" stroke="rgba(33,41,48,1)" stroke-width="1.5" fill-opacity="1" fill="#ffffff"></path><g id="SvgjsG1049"><text id="SvgjsText1050" font-family="&quot;Microsoft YaHei&quot;, 微软雅黑, Arial" text-anchor="middle" font-size="20px" width="119px" fill="#323232" font-weight="400" align="middle" lineHeight="125%" anchor="middle" family="&quot;Microsoft YaHei&quot;, 微软雅黑, Arial" size="20px" weight="400" font-style="" opacity="1" y="11" transform="rotate(0)"><tspan id="SvgjsTspan1051" dy="25" x="69.5"><tspan id="SvgjsTspan1052" style="">消费者</tspan></tspan></text></g></g><g id="SvgjsG1053" transform="translate(25,387.42064000689794)"><path id="SvgjsPath1054" d="M 0 4Q 0 0 4 0L 135 0Q 139 0 139 4L 139 54Q 139 58 135 58L 4 58Q 0 58 0 54Z" stroke="rgba(33,41,48,1)" stroke-width="1.5" fill-opacity="1" fill="#ffffff"></path><g id="SvgjsG1055"><text id="SvgjsText1056" font-family="&quot;Microsoft YaHei&quot;, 微软雅黑, Arial" text-anchor="middle" font-size="20px" width="119px" fill="#323232" font-weight="400" align="middle" lineHeight="125%" anchor="middle" family="&quot;Microsoft YaHei&quot;, 微软雅黑, Arial" size="20px" weight="400" font-style="" opacity="1" y="11" transform="rotate(0)"><tspan id="SvgjsTspan1057" dy="25" x="69.5"><tspan id="SvgjsTspan1058" style="">业务对象层</tspan></tspan></text></g></g><g id="SvgjsG1059" transform="translate(264,331.8222308688693)"><path id="SvgjsPath1060" d="M 0 4Q 0 0 4 0L 135 0Q 139 0 139 4L 139 54Q 139 58 135 58L 4 58Q 0 58 0 54Z" stroke="rgba(33,41,48,1)" stroke-width="1.5" fill-opacity="1" fill="#ffffff"></path><g id="SvgjsG1061"><text id="SvgjsText1062" font-family="&quot;Microsoft YaHei&quot;, 微软雅黑, Arial" text-anchor="middle" font-size="20px" width="119px" fill="#323232" font-weight="400" align="middle" lineHeight="125%" anchor="middle" family="&quot;Microsoft YaHei&quot;, 微软雅黑, Arial" size="20px" weight="400" font-style="" opacity="1" y="11" transform="rotate(0)"><tspan id="SvgjsTspan1063" dy="25" x="69.5"><tspan id="SvgjsTspan1064" style="">企业</tspan></tspan></text></g></g><g id="SvgjsG1065" transform="translate(503,331.8222308688693)"><path id="SvgjsPath1066" d="M 0 4Q 0 0 4 0L 135 0Q 139 0 139 4L 139 54Q 139 58 135 58L 4 58Q 0 58 0 54Z" stroke="rgba(33,41,48,1)" stroke-width="1.5" fill-opacity="1" fill="#ffffff"></path><g id="SvgjsG1067"><text id="SvgjsText1068" font-family="&quot;Microsoft YaHei&quot;, 微软雅黑, Arial" text-anchor="middle" font-size="20px" width="119px" fill="#323232" font-weight="400" align="middle" lineHeight="125%" anchor="middle" family="&quot;Microsoft YaHei&quot;, 微软雅黑, Arial" size="20px" weight="400" font-style="" opacity="1" y="11" transform="rotate(0)"><tspan id="SvgjsTspan1069" dy="25" x="69.5"><tspan id="SvgjsTspan1070" style="">用户</tspan></tspan></text></g></g><g id="SvgjsG1071" transform="translate(742,331.8222308688693)"><path id="SvgjsPath1072" d="M 0 4Q 0 0 4 0L 135 0Q 139 0 139 4L 139 54Q 139 58 135 58L 4 58Q 0 58 0 54Z" stroke="rgba(33,41,48,1)" stroke-width="1.5" fill-opacity="1" fill="#ffffff"></path><g id="SvgjsG1073"><text id="SvgjsText1074" font-family="&quot;Microsoft YaHei&quot;, 微软雅黑, Arial" text-anchor="middle" font-size="20px" width="119px" fill="#323232" font-weight="400" align="middle" lineHeight="125%" anchor="middle" family="&quot;Microsoft YaHei&quot;, 微软雅黑, Arial" size="20px" weight="400" font-style="" opacity="1" y="11" transform="rotate(0)"><tspan id="SvgjsTspan1075" dy="25" x="69.5"><tspan id="SvgjsTspan1076" style="">产品</tspan></tspan></text></g></g><g id="SvgjsG1077" transform="translate(264,438.9650880117265)"><path id="SvgjsPath1078" d="M 0 4Q 0 0 4 0L 135 0Q 139 0 139 4L 139 54Q 139 58 135 58L 4 58Q 0 58 0 54Z" stroke="rgba(33,41,48,1)" stroke-width="1.5" fill-opacity="1" fill="#ffffff"></path><g id="SvgjsG1079"><text id="SvgjsText1080" font-family="&quot;Microsoft YaHei&quot;, 微软雅黑, Arial" text-anchor="middle" font-size="20px" width="119px" fill="#323232" font-weight="400" align="middle" lineHeight="125%" anchor="middle" family="&quot;Microsoft YaHei&quot;, 微软雅黑, Arial" size="20px" weight="400" font-style="" opacity="1" y="11" transform="rotate(0)"><tspan id="SvgjsTspan1081" dy="25" x="69.5"><tspan id="SvgjsTspan1082" style="">批次</tspan></tspan></text></g></g><g id="SvgjsG1083" transform="translate(503,438.9650880117265)"><path id="SvgjsPath1084" d="M 0 4Q 0 0 4 0L 135 0Q 139 0 139 4L 139 54Q 139 58 135 58L 4 58Q 0 58 0 54Z" stroke="rgba(33,41,48,1)" stroke-width="1.5" fill-opacity="1" fill="#ffffff"></path><g id="SvgjsG1085"><text id="SvgjsText1086" font-family="&quot;Microsoft YaHei&quot;, 微软雅黑, Arial" text-anchor="middle" font-size="20px" width="119px" fill="#323232" font-weight="400" align="middle" lineHeight="125%" anchor="middle" family="&quot;Microsoft YaHei&quot;, 微软雅黑, Arial" size="20px" weight="400" font-style="" opacity="1" y="11" transform="rotate(0)"><tspan id="SvgjsTspan1087" dy="25" x="69.5"><tspan id="SvgjsTspan1088" style="">二维码</tspan></tspan></text></g></g><g id="SvgjsG1089" transform="translate(742.0000000000001,438.9650880117265)"><path id="SvgjsPath1090" d="M 0 4Q 0 0 4 0L 135 0Q 139 0 139 4L 139 54Q 139 58 135 58L 4 58Q 0 58 0 54Z" stroke="rgba(33,41,48,1)" stroke-width="1.5" fill-opacity="1" fill="#ffffff"></path><g id="SvgjsG1091"><text id="SvgjsText1092" font-family="&quot;Microsoft YaHei&quot;, 微软雅黑, Arial" text-anchor="middle" font-size="20px" width="119px" fill="#323232" font-weight="400" align="middle" lineHeight="125%" anchor="middle" family="&quot;Microsoft YaHei&quot;, 微软雅黑, Arial" size="20px" weight="400" font-style="" opacity="1" y="11" transform="rotate(0)"><tspan id="SvgjsTspan1093" dy="25" x="69.5"><tspan id="SvgjsTspan1094" style="">溯源事件</tspan></tspan></text></g></g><g id="SvgjsG1095" transform="translate(981,331.8222308688693)"><path id="SvgjsPath1096" d="M 0 4Q 0 0 4 0L 135 0Q 139 0 139 4L 139 54Q 139 58 135 58L 4 58Q 0 58 0 54Z" stroke="rgba(33,41,48,1)" stroke-width="1.5" fill-opacity="1" fill="#ffffff"></path><g id="SvgjsG1097"><text id="SvgjsText1098" font-family="&quot;Microsoft YaHei&quot;, 微软雅黑, Arial" text-anchor="middle" font-size="20px" width="119px" fill="#323232" font-weight="400" align="middle" lineHeight="125%" anchor="middle" family="&quot;Microsoft YaHei&quot;, 微软雅黑, Arial" size="20px" weight="400" font-style="" opacity="1" y="11" transform="rotate(0)"><tspan id="SvgjsTspan1099" dy="25" x="69.5"><tspan id="SvgjsTspan1100" style="">监管反馈</tspan></tspan></text></g></g><g id="SvgjsG1101" transform="translate(25.00000000000003,672.520645262703)"><path id="SvgjsPath1102" d="M 0 4Q 0 0 4 0L 135 0Q 139 0 139 4L 139 54Q 139 58 135 58L 4 58Q 0 58 0 54Z" stroke="rgba(33,41,48,1)" stroke-width="1.5" fill-opacity="1" fill="#ffffff"></path><g id="SvgjsG1103"><text id="SvgjsText1104" font-family="&quot;Microsoft YaHei&quot;, 微软雅黑, Arial" text-anchor="middle" font-size="20px" width="119px" fill="#323232" font-weight="400" align="middle" lineHeight="125%" anchor="middle" family="&quot;Microsoft YaHei&quot;, 微软雅黑, Arial" size="20px" weight="400" font-style="" opacity="1" y="11" transform="rotate(0)"><tspan id="SvgjsTspan1105" dy="25" x="69.5"><tspan id="SvgjsTspan1106" style="">生命周期层</tspan></tspan></text></g></g><g id="SvgjsG1107" transform="translate(264,623.377788119846)"><path id="SvgjsPath1108" d="M 0 4Q 0 0 4 0L 135 0Q 139 0 139 4L 139 54Q 139 58 135 58L 4 58Q 0 58 0 54Z" stroke="rgba(33,41,48,1)" stroke-width="1.5" fill-opacity="1" fill="#ffffff"></path><g id="SvgjsG1109"><text id="SvgjsText1110" font-family="&quot;Microsoft YaHei&quot;, 微软雅黑, Arial" text-anchor="middle" font-size="20px" width="119px" fill="#323232" font-weight="400" align="middle" lineHeight="125%" anchor="middle" family="&quot;Microsoft YaHei&quot;, 微软雅黑, Arial" size="20px" weight="400" font-style="" opacity="1" y="11" transform="rotate(0)"><tspan id="SvgjsTspan1111" dy="25" x="69.5"><tspan id="SvgjsTspan1112" style="">创建批次</tspan></tspan></text></g></g><g id="SvgjsG1113" transform="translate(503,623.377788119846)"><path id="SvgjsPath1114" d="M 0 4Q 0 0 4 0L 135 0Q 139 0 139 4L 139 54Q 139 58 135 58L 4 58Q 0 58 0 54Z" stroke="rgba(33,41,48,1)" stroke-width="1.5" fill-opacity="1" fill="#ffffff"></path><g id="SvgjsG1115"><text id="SvgjsText1116" font-family="&quot;Microsoft YaHei&quot;, 微软雅黑, Arial" text-anchor="middle" font-size="20px" width="119px" fill="#323232" font-weight="400" align="middle" lineHeight="125%" anchor="middle" family="&quot;Microsoft YaHei&quot;, 微软雅黑, Arial" size="20px" weight="400" font-style="" opacity="1" y="11" transform="rotate(0)"><tspan id="SvgjsTspan1117" dy="25" x="69.5"><tspan id="SvgjsTspan1118" style="">生产合格</tspan></tspan></text></g></g><g id="SvgjsG1119" transform="translate(742,623.377788119846)"><path id="SvgjsPath1120" d="M 0 4Q 0 0 4 0L 135 0Q 139 0 139 4L 139 54Q 139 58 135 58L 4 58Q 0 58 0 54Z" stroke="rgba(33,41,48,1)" stroke-width="1.5" fill-opacity="1" fill="#ffffff"></path><g id="SvgjsG1121"><text id="SvgjsText1122" font-family="&quot;Microsoft YaHei&quot;, 微软雅黑, Arial" text-anchor="middle" font-size="20px" width="119px" fill="#323232" font-weight="400" align="middle" lineHeight="125%" anchor="middle" family="&quot;Microsoft YaHei&quot;, 微软雅黑, Arial" size="20px" weight="400" font-style="" opacity="1" y="11" transform="rotate(0)"><tspan id="SvgjsTspan1123" dy="25" x="69.5"><tspan id="SvgjsTspan1124" style="">加工记录</tspan></tspan></text></g></g><g id="SvgjsG1125" transform="translate(264,730.520645262703)"><path id="SvgjsPath1126" d="M 0 4Q 0 0 4 0L 135 0Q 139 0 139 4L 139 54Q 139 58 135 58L 4 58Q 0 58 0 54Z" stroke="rgba(33,41,48,1)" stroke-width="1.5" fill-opacity="1" fill="#ffffff"></path><g id="SvgjsG1127"><text id="SvgjsText1128" font-family="&quot;Microsoft YaHei&quot;, 微软雅黑, Arial" text-anchor="middle" font-size="20px" width="119px" fill="#323232" font-weight="400" align="middle" lineHeight="125%" anchor="middle" family="&quot;Microsoft YaHei&quot;, 微软雅黑, Arial" size="20px" weight="400" font-style="" opacity="1" y="11" transform="rotate(0)"><tspan id="SvgjsTspan1129" dy="25" x="69.5"><tspan id="SvgjsTspan1130" style="">监管抽查</tspan></tspan></text></g></g><g id="SvgjsG1131" transform="translate(503,730.520645262703)"><path id="SvgjsPath1132" d="M 0 4Q 0 0 4 0L 135 0Q 139 0 139 4L 139 54Q 139 58 135 58L 4 58Q 0 58 0 54Z" stroke="rgba(33,41,48,1)" stroke-width="1.5" fill-opacity="1" fill="#ffffff"></path><g id="SvgjsG1133"><text id="SvgjsText1134" font-family="&quot;Microsoft YaHei&quot;, 微软雅黑, Arial" text-anchor="middle" font-size="20px" width="119px" fill="#323232" font-weight="400" align="middle" lineHeight="125%" anchor="middle" family="&quot;Microsoft YaHei&quot;, 微软雅黑, Arial" size="20px" weight="400" font-style="" opacity="1" y="11" transform="rotate(0)"><tspan id="SvgjsTspan1135" dy="25" x="69.5"><tspan id="SvgjsTspan1136" style="">消费反馈</tspan></tspan></text></g></g><g id="SvgjsG1137" transform="translate(742.0000000000001,730.520645262703)"><path id="SvgjsPath1138" d="M 0 4Q 0 0 4 0L 135 0Q 139 0 139 4L 139 54Q 139 58 135 58L 4 58Q 0 58 0 54Z" stroke="rgba(33,41,48,1)" stroke-width="1.5" fill-opacity="1" fill="#ffffff"></path><g id="SvgjsG1139"><text id="SvgjsText1140" font-family="&quot;Microsoft YaHei&quot;, 微软雅黑, Arial" text-anchor="middle" font-size="20px" width="119px" fill="#323232" font-weight="400" align="middle" lineHeight="125%" anchor="middle" family="&quot;Microsoft YaHei&quot;, 微软雅黑, Arial" size="20px" weight="400" font-style="" opacity="1" y="11" transform="rotate(0)"><tspan id="SvgjsTspan1141" dy="25" x="69.5"><tspan id="SvgjsTspan1142" style="">销售上架</tspan></tspan></text></g></g><g id="SvgjsG1143" transform="translate(981,623.377788119846)"><path id="SvgjsPath1144" d="M 0 4Q 0 0 4 0L 135 0Q 139 0 139 4L 139 54Q 139 58 135 58L 4 58Q 0 58 0 54Z" stroke="rgba(33,41,48,1)" stroke-width="1.5" fill-opacity="1" fill="#ffffff"></path><g id="SvgjsG1145"><text id="SvgjsText1146" font-family="&quot;Microsoft YaHei&quot;, 微软雅黑, Arial" text-anchor="middle" font-size="20px" width="119px" fill="#323232" font-weight="400" align="middle" lineHeight="125%" anchor="middle" family="&quot;Microsoft YaHei&quot;, 微软雅黑, Arial" size="20px" weight="400" font-style="" opacity="1" y="11" transform="rotate(0)"><tspan id="SvgjsTspan1147" dy="25" x="69.5"><tspan id="SvgjsTspan1148" style="">运输流转</tspan></tspan></text></g></g><g id="SvgjsG1149"><path id="SvgjsPath1150" d="M403.75 652.377788119846L453 652.377788119846L453 652.377788119846L500.29999999999995 652.377788119846" stroke="#323232" stroke-width="1.5" fill="none" marker-end="url(#SvgjsMarker1151)"></path></g><g id="SvgjsG1153"><path id="SvgjsPath1154" d="M642.75 652.377788119846L692 652.377788119846L692 652.377788119846L739.3 652.377788119846" stroke="#323232" stroke-width="1.5" fill="none" marker-end="url(#SvgjsMarker1155)"></path></g><g id="SvgjsG1157"><path id="SvgjsPath1158" d="M881.75 652.377788119846L931 652.377788119846L931 652.377788119846L978.3 652.377788119846" stroke="#323232" stroke-width="1.5" fill="none" marker-end="url(#SvgjsMarker1159)"></path></g><g id="SvgjsG1161"><path id="SvgjsPath1162" d="M1050.5 682.127788119846L1050.5 759.520645262703L883.7000000000002 759.520645262703" stroke="#323232" stroke-width="1.5" fill="none" marker-end="url(#SvgjsMarker1163)"></path></g><g id="SvgjsG1165"><path id="SvgjsPath1166" d="M741.2500000000001 759.520645262703L692 759.520645262703L692 759.520645262703L644.7 759.520645262703" stroke="#323232" stroke-width="1.5" fill="none" marker-end="url(#SvgjsMarker1167)"></path></g><g id="SvgjsG1169"><path id="SvgjsPath1170" d="M502.25 759.520645262703L453 759.520645262703L453 759.520645262703L405.70000000000005 759.520645262703" stroke="#323232" stroke-width="1.5" fill="none" marker-end="url(#SvgjsMarker1171)"></path></g><g id="SvgjsG1173"></g><rect id="SvgjsRect1174" width="1186.7015744163878" height="835.7190630473788" fill="url(#wpspattern_mark_0)"></rect></svg>